PathFileType	4	(X / Y / Z)	Demo_152250_11_September_2019	Demo_152250_11_September_2019.trc
DataRate	CameraRate	NumFrames	NumMarkers	Units	OrigDataRate	OrigDataStartFrame	OrigNumFrames
50	50	18	25	m	50	1145	2190
Frame#	Time		SpineBase		SpineMid		Neck		Head		ShoulderLeft		ElbowLeft		WristLeft		HandLeft		ShoulderRight		ElbowRight		WristRight		HandRight		HipLeft		KneeLeft		AnkleLeft		FootLeft		HipRight		KneeRight		AnkleRight		FootRight		SpineShoulder		HandTipLeft		LeftThumb		HandTipRight		ThumbRight		
X1	Y1	Z1	X2	Y2	Z2	X3	Y3	Z3	X4	Y4	Z4	X5	Y5	Z5	X6	Y6	Z6	X7	Y7	Z7	X8	Y8	Z8	X9	Y9	Z9	X10	Y10	Z10	X11	Y11	Z11	X12	Y12	Z12	X13	Y13	Z13	X14	Y14	Z14	X15	Y15	Z15	X16	Y16	Z16	X17	Y17	Z17	X18	Y18	Z18	X19	Y19	Z19	X20	Y20	Z20	X21	Y21	Z21	X22	Y22	Z22	X23	Y23	Z23	X24	Y24	Z24	X25	Y25	Z25	
1096	44.138	-0.041	0.743	1.520	-0.053	1.033	1.496	-0.064	1.311	1.458	-0.037	1.458	1.435	-0.210	1.206	1.425	-0.250	0.967	1.412	-0.276	0.773	1.361	-0.286	0.704	1.350	0.115	1.217	1.466	0.287	1.113	1.439	0.467	1.081	1.390	0.509	1.075	1.385	-0.114	0.747	1.474	-0.160	0.448	1.528	-0.141	0.286	1.594	-0.123	0.270	1.551	0.034	0.751	1.500	0.095	0.451	1.547	0.084	0.274	1.612	0.088	0.262	1.580	-0.061	1.243	1.470	-0.261	0.636	1.364	-0.306	0.710	1.360	0.563	1.067	1.351	0.529	1.084	1.318
1097	44.155	-0.041	0.743	1.520	-0.053	1.033	1.496	-0.064	1.311	1.458	-0.037	1.458	1.435	-0.210	1.206	1.425	-0.250	0.967	1.412	-0.276	0.773	1.361	-0.286	0.704	1.350	0.115	1.217	1.466	0.287	1.113	1.439	0.467	1.081	1.390	0.509	1.075	1.385	-0.114	0.747	1.474	-0.160	0.448	1.528	-0.141	0.286	1.594	-0.123	0.270	1.551	0.034	0.751	1.500	0.095	0.451	1.547	0.084	0.274	1.612	0.088	0.262	1.580	-0.061	1.243	1.470	-0.261	0.636	1.364	-0.306	0.710	1.360	0.563	1.067	1.351	0.529	1.084	1.318
1098	44.172	-0.050	0.741	1.519	-0.062	1.031	1.495	-0.073	1.310	1.457	-0.049	1.457	1.434	-0.219	1.205	1.422	-0.260	0.965	1.410	-0.287	0.773	1.356	-0.298	0.703	1.343	0.102	1.209	1.466	0.259	1.064	1.453	0.436	0.993	1.418	0.461	0.983	1.413	-0.123	0.745	1.473	-0.169	0.445	1.525	-0.145	0.286	1.594	-0.125	0.271	1.552	0.026	0.748	1.499	0.090	0.449	1.543	0.079	0.273	1.605	0.083	0.262	1.576	-0.071	1.242	1.469	-0.275	0.636	1.354	-0.318	0.709	1.354	0.533	0.945	1.380	0.474	0.989	1.360
1099	44.188	-0.050	0.741	1.519	-0.062	1.031	1.495	-0.073	1.310	1.457	-0.049	1.457	1.434	-0.219	1.205	1.422	-0.260	0.965	1.410	-0.287	0.773	1.356	-0.298	0.703	1.343	0.102	1.209	1.466	0.259	1.064	1.453	0.436	0.993	1.418	0.461	0.983	1.413	-0.123	0.745	1.473	-0.169	0.445	1.525	-0.145	0.286	1.594	-0.125	0.271	1.552	0.026	0.748	1.499	0.090	0.449	1.543	0.079	0.273	1.605	0.083	0.262	1.576	-0.071	1.242	1.469	-0.275	0.636	1.354	-0.318	0.709	1.354	0.533	0.945	1.380	0.474	0.989	1.360
1100	44.205	-0.058	0.737	1.518	-0.070	1.029	1.494	-0.081	1.309	1.456	-0.061	1.456	1.432	-0.227	1.203	1.420	-0.269	0.964	1.407	-0.296	0.773	1.351	-0.309	0.703	1.337	0.090	1.201	1.466	0.233	1.018	1.465	0.400	0.928	1.430	0.409	0.899	1.441	-0.131	0.742	1.472	-0.176	0.442	1.524	-0.150	0.285	1.594	-0.128	0.271	1.554	0.018	0.745	1.498	0.084	0.445	1.539	0.075	0.272	1.599	0.078	0.262	1.572	-0.078	1.241	1.467	-0.286	0.635	1.347	-0.330	0.707	1.349	0.457	0.863	1.423	0.410	0.902	1.401
1101	44.222	-0.058	0.737	1.518	-0.070	1.029	1.494	-0.081	1.309	1.456	-0.061	1.456	1.432	-0.227	1.203	1.420	-0.269	0.964	1.407	-0.296	0.773	1.351	-0.309	0.703	1.337	0.090	1.201	1.466	0.233	1.018	1.465	0.400	0.928	1.430	0.409	0.899	1.441	-0.131	0.742	1.472	-0.176	0.442	1.524	-0.150	0.285	1.594	-0.128	0.271	1.554	0.018	0.745	1.498	0.084	0.445	1.539	0.075	0.272	1.599	0.078	0.262	1.572	-0.078	1.241	1.467	-0.286	0.635	1.347	-0.330	0.707	1.349	0.457	0.863	1.423	0.410	0.902	1.401
1102	44.238	-0.066	0.734	1.517	-0.077	1.027	1.493	-0.088	1.309	1.454	-0.071	1.455	1.430	-0.234	1.202	1.419	-0.276	0.963	1.405	-0.304	0.774	1.346	-0.318	0.703	1.332	0.079	1.194	1.464	0.211	0.977	1.471	0.349	0.837	1.464	0.357	0.822	1.473	-0.139	0.738	1.471	-0.182	0.439	1.523	-0.154	0.284	1.594	-0.130	0.271	1.555	0.010	0.742	1.496	0.077	0.441	1.534	0.070	0.271	1.592	0.074	0.262	1.569	-0.085	1.240	1.466	-0.298	0.636	1.339	-0.340	0.707	1.344	0.391	0.758	1.467	0.353	0.811	1.442
1103	44.255	-0.066	0.734	1.517	-0.077	1.027	1.493	-0.088	1.309	1.454	-0.071	1.455	1.430	-0.234	1.202	1.419	-0.276	0.963	1.405	-0.304	0.774	1.346	-0.318	0.703	1.332	0.079	1.194	1.464	0.211	0.977	1.471	0.349	0.837	1.464	0.357	0.822	1.473	-0.139	0.738	1.471	-0.182	0.439	1.523	-0.154	0.284	1.594	-0.130	0.271	1.555	0.010	0.742	1.496	0.077	0.441	1.534	0.070	0.271	1.592	0.074	0.262	1.569	-0.085	1.240	1.466	-0.298	0.636	1.339	-0.340	0.707	1.344	0.391	0.758	1.467	0.353	0.811	1.442
1104	44.272	-0.073	0.731	1.515	-0.083	1.026	1.492	-0.093	1.308	1.454	-0.080	1.455	1.429	-0.240	1.201	1.418	-0.282	0.962	1.403	-0.311	0.774	1.343	-0.325	0.702	1.329	0.070	1.189	1.463	0.171	0.952	1.475	0.276	0.804	1.491	0.295	0.747	1.511	-0.146	0.735	1.470	-0.185	0.437	1.523	-0.156	0.283	1.594	-0.132	0.270	1.557	0.004	0.739	1.494	0.071	0.438	1.530	0.065	0.270	1.586	0.070	0.262	1.564	-0.091	1.239	1.465	-0.307	0.635	1.334	-0.349	0.704	1.340	0.316	0.659	1.525	0.293	0.715	1.483
1105	44.288	-0.073	0.731	1.515	-0.083	1.026	1.492	-0.093	1.308	1.454	-0.080	1.455	1.429	-0.240	1.201	1.418	-0.282	0.962	1.403	-0.311	0.774	1.343	-0.325	0.702	1.329	0.070	1.189	1.463	0.171	0.952	1.475	0.276	0.804	1.491	0.295	0.747	1.511	-0.146	0.735	1.470	-0.185	0.437	1.523	-0.156	0.283	1.594	-0.132	0.270	1.557	0.004	0.739	1.494	0.071	0.438	1.530	0.065	0.270	1.586	0.070	0.262	1.564	-0.091	1.239	1.465	-0.307	0.635	1.334	-0.349	0.704	1.340	0.316	0.659	1.525	0.293	0.715	1.483
1106	44.305	-0.080	0.728	1.514	-0.090	1.024	1.490	-0.099	1.307	1.453	-0.087	1.454	1.428	-0.244	1.200	1.417	-0.286	0.961	1.402	-0.316	0.775	1.340	-0.331	0.703	1.325	0.062	1.185	1.460	0.122	0.934	1.477	0.216	0.755	1.520	0.227	0.705	1.526	-0.153	0.733	1.470	-0.188	0.435	1.523	-0.158	0.282	1.594	-0.134	0.269	1.558	-0.003	0.736	1.492	0.064	0.435	1.525	0.061	0.274	1.579	0.063	0.266	1.554	-0.097	1.238	1.464	-0.315	0.635	1.328	-0.356	0.704	1.336	0.223	0.592	1.567	0.223	0.655	1.505
1107	44.322	-0.080	0.728	1.514	-0.090	1.024	1.490	-0.099	1.307	1.453	-0.087	1.454	1.428	-0.244	1.200	1.417	-0.286	0.961	1.402	-0.316	0.775	1.340	-0.331	0.703	1.325	0.062	1.185	1.460	0.122	0.934	1.477	0.216	0.755	1.520	0.227	0.705	1.526	-0.153	0.733	1.470	-0.188	0.435	1.523	-0.158	0.282	1.594	-0.134	0.269	1.558	-0.003	0.736	1.492	0.064	0.435	1.525	0.061	0.274	1.579	0.063	0.266	1.554	-0.097	1.238	1.464	-0.315	0.635	1.328	-0.356	0.704	1.336	0.223	0.592	1.567	0.223	0.655	1.505
1108	44.339	-0.086	0.726	1.512	-0.095	1.023	1.489	-0.103	1.307	1.452	-0.094	1.454	1.426	-0.248	1.199	1.417	-0.289	0.960	1.401	-0.325	0.767	1.334	-0.336	0.702	1.322	0.054	1.183	1.457	0.100	0.926	1.479	0.165	0.729	1.533	0.170	0.678	1.536	-0.159	0.731	1.469	-0.189	0.434	1.524	-0.159	0.281	1.595	-0.136	0.269	1.559	-0.010	0.734	1.489	0.055	0.432	1.519	0.057	0.277	1.573	0.057	0.268	1.546	-0.101	1.238	1.464	-0.323	0.635	1.323	-0.362	0.704	1.333	0.149	0.568	1.572	0.172	0.628	1.515
1109	44.355	-0.086	0.726	1.512	-0.095	1.023	1.489	-0.103	1.307	1.452	-0.094	1.454	1.426	-0.248	1.199	1.417	-0.289	0.960	1.401	-0.325	0.767	1.334	-0.336	0.702	1.322	0.054	1.183	1.457	0.100	0.926	1.479	0.165	0.729	1.533	0.170	0.678	1.536	-0.159	0.731	1.469	-0.189	0.434	1.524	-0.159	0.281	1.595	-0.136	0.269	1.559	-0.010	0.734	1.489	0.055	0.432	1.519	0.057	0.277	1.573	0.057	0.268	1.546	-0.101	1.238	1.464	-0.323	0.635	1.323	-0.362	0.704	1.333	0.149	0.568	1.572	0.172	0.628	1.515
1110	44.372	-0.092	0.725	1.511	-0.100	1.022	1.488	-0.107	1.306	1.451	-0.099	1.453	1.425	-0.252	1.198	1.417	-0.292	0.959	1.400	-0.330	0.765	1.332	-0.340	0.702	1.319	0.048	1.181	1.454	0.087	0.923	1.480	0.155	0.730	1.532	0.150	0.686	1.533	-0.165	0.729	1.468	-0.190	0.432	1.525	-0.159	0.281	1.595	-0.138	0.269	1.560	-0.015	0.732	1.487	0.049	0.430	1.515	0.053	0.279	1.568	0.053	0.269	1.540	-0.105	1.237	1.463	-0.329	0.636	1.319	-0.367	0.703	1.330	0.129	0.581	1.563	0.146	0.643	1.514
1111	44.389	-0.092	0.725	1.511	-0.100	1.022	1.488	-0.107	1.306	1.451	-0.099	1.453	1.425	-0.252	1.198	1.417	-0.292	0.959	1.400	-0.330	0.765	1.332	-0.340	0.702	1.319	0.048	1.181	1.454	0.087	0.923	1.480	0.155	0.730	1.532	0.150	0.686	1.533	-0.165	0.729	1.468	-0.190	0.432	1.525	-0.159	0.281	1.595	-0.138	0.269	1.560	-0.015	0.732	1.487	0.049	0.430	1.515	0.053	0.279	1.568	0.053	0.269	1.540	-0.105	1.237	1.463	-0.329	0.636	1.319	-0.367	0.703	1.330	0.129	0.581	1.563	0.146	0.643	1.514
1112	44.405	-0.096	0.723	1.509	-0.104	1.021	1.487	-0.110	1.306	1.451	-0.103	1.453	1.425	-0.255	1.197	1.418	-0.294	0.959	1.400	-0.334	0.767	1.330	-0.342	0.702	1.318	0.044	1.180	1.452	0.082	0.927	1.480	0.154	0.745	1.529	0.163	0.690	1.535	-0.169	0.727	1.468	-0.191	0.431	1.526	-0.160	0.281	1.596	-0.139	0.269	1.560	-0.019	0.731	1.484	0.045	0.428	1.512	0.051	0.281	1.565	0.051	0.270	1.536	-0.109	1.236	1.462	-0.333	0.636	1.316	-0.370	0.700	1.327	0.130	0.584	1.570	0.136	0.636	1.518
1113	44.422	-0.096	0.723	1.509	-0.104	1.021	1.487	-0.110	1.306	1.451	-0.103	1.453	1.425	-0.255	1.197	1.418	-0.294	0.959	1.400	-0.334	0.767	1.330	-0.342	0.702	1.318	0.044	1.180	1.452	0.082	0.927	1.480	0.154	0.745	1.529	0.163	0.690	1.535	-0.169	0.727	1.468	-0.191	0.431	1.526	-0.160	0.281	1.596	-0.139	0.269	1.560	-0.019	0.731	1.484	0.045	0.428	1.512	0.051	0.281	1.565	0.051	0.270	1.536	-0.109	1.236	1.462	-0.333	0.636	1.316	-0.370	0.700	1.327	0.130	0.584	1.570	0.136	0.636	1.518
